<mxfile host="app.diagrams.net" modified="2021-12-09T00:26:47.298Z" agent="5.0 (Windows NT 10.0; Win64; x64) AppleWebKit/537.36 (KHTML, like Gecko) Chrome/96.0.4664.55 Safari/537.36 Edg/96.0.1054.43" etag="MEPUFPu6bBFVP2PmEVNJ" version="15.9.4" type="github">
  <diagram id="6a731a19-8d31-9384-78a2-239565b7b9f0" name="Page-1">
    <mxGraphModel dx="595" dy="794" grid="1" gridSize="10" guides="1" tooltips="1" connect="1" arrows="1" fold="1" page="1" pageScale="1" pageWidth="827" pageHeight="1169" background="none" math="0" shadow="0">
      <root>
        <mxCell id="0" />
        <mxCell id="1" parent="0" />
        <mxCell id="979" value="" style="whiteSpace=wrap;html=1;strokeColor=none;fillColor=#333333;fontFamily=Verdana;fontSize=24;fontColor=#FFFFFF;align=center;" parent="1" vertex="1">
          <mxGeometry x="854" y="31" width="776" height="1700" as="geometry" />
        </mxCell>
        <mxCell id="980" value="" style="ellipse;whiteSpace=wrap;html=1;fontFamily=Verdana;fontSize=16;fontColor=#DDDDDD;strokeColor=none;fillColor=#282828;" parent="1" vertex="1">
          <mxGeometry x="896" y="271" width="350" height="350" as="geometry" />
        </mxCell>
        <mxCell id="981" value="" style="ellipse;whiteSpace=wrap;html=1;fontFamily=Verdana;fontSize=16;fontColor=#DDDDDD;strokeColor=none;fillColor=#282828;" parent="1" vertex="1">
          <mxGeometry x="896" y="764" width="350" height="350" as="geometry" />
        </mxCell>
        <mxCell id="982" value="" style="ellipse;whiteSpace=wrap;html=1;fontFamily=Verdana;fontSize=16;fontColor=#DDDDDD;strokeColor=none;fillColor=#282828;" parent="1" vertex="1">
          <mxGeometry x="896" y="1256" width="350" height="350" as="geometry" />
        </mxCell>
        <mxCell id="983" value="" style="ellipse;whiteSpace=wrap;html=1;fontFamily=Verdana;fontSize=16;fontColor=#DDDDDD;strokeColor=none;fillColor=#282828;" parent="1" vertex="1">
          <mxGeometry x="1223" y="1010" width="350" height="350" as="geometry" />
        </mxCell>
        <mxCell id="984" value="" style="ellipse;whiteSpace=wrap;html=1;fontFamily=Verdana;fontSize=16;fontColor=#DDDDDD;strokeColor=none;fillColor=#282828;" parent="1" vertex="1">
          <mxGeometry x="1223" y="518" width="350" height="350" as="geometry" />
        </mxCell>
        <mxCell id="985" value="GCP Project" style="text;html=1;resizable=0;points=[];autosize=1;align=left;verticalAlign=top;spacingTop=-4;fontSize=24;fontFamily=Verdana;fontColor=#DDDDDD;fontStyle=1" parent="1" vertex="1">
          <mxGeometry x="963.9999999999999" y="424" width="170" height="30" as="geometry" />
        </mxCell>
        <mxCell id="986" value="1&amp;nbsp;" style="text;html=1;resizable=0;points=[];autosize=1;align=left;verticalAlign=top;spacingTop=-4;fontSize=100;fontFamily=Verdana;fontColor=#F18808;fontStyle=1" parent="1" vertex="1">
          <mxGeometry x="896" y="740" width="110" height="120" as="geometry" />
        </mxCell>
        <mxCell id="987" value="2" style="text;html=1;resizable=0;points=[];autosize=1;align=left;verticalAlign=top;spacingTop=-4;fontSize=100;fontFamily=Verdana;fontColor=#F18808;fontStyle=1" parent="1" vertex="1">
          <mxGeometry x="890" y="304" width="74" height="120" as="geometry" />
        </mxCell>
        <mxCell id="988" value="3" style="text;html=1;resizable=0;points=[];autosize=1;align=left;verticalAlign=top;spacingTop=-4;fontSize=100;fontFamily=Verdana;fontColor=#F18808;fontStyle=1" parent="1" vertex="1">
          <mxGeometry x="1241" y="527" width="74" height="120" as="geometry" />
        </mxCell>
        <mxCell id="989" value="4" style="text;html=1;resizable=0;points=[];autosize=1;align=left;verticalAlign=top;spacingTop=-4;fontSize=100;fontFamily=Verdana;fontColor=#F18808;fontStyle=1" parent="1" vertex="1">
          <mxGeometry x="1199" y="1029" width="74" height="120" as="geometry" />
        </mxCell>
        <mxCell id="990" value="5" style="text;html=1;resizable=0;points=[];autosize=1;align=left;verticalAlign=top;spacingTop=-4;fontSize=100;fontFamily=Verdana;fontColor=#F18808;fontStyle=1" parent="1" vertex="1">
          <mxGeometry x="874" y="1251" width="74" height="120" as="geometry" />
        </mxCell>
        <mxCell id="991" value="&lt;div style=&quot;line-height: 120%&quot;&gt;&lt;font style=&quot;line-height: 120%&quot;&gt;&lt;div&gt;GCP Project creation&lt;/div&gt;&lt;div&gt;Service account creation&lt;/div&gt;&lt;/font&gt;&lt;/div&gt;" style="text;resizable=0;points=[];autosize=1;align=left;verticalAlign=top;spacingTop=-4;fontSize=16;fontFamily=Verdana;fontColor=#888888;html=1;" parent="1" vertex="1">
          <mxGeometry x="964" y="478" width="210" height="40" as="geometry" />
        </mxCell>
        <mxCell id="992" value="&lt;b&gt;&lt;font style=&quot;font-size: 70px&quot;&gt;GCP task 1&lt;/font&gt;&lt;/b&gt;" style="whiteSpace=wrap;html=1;strokeColor=none;fillColor=none;fontFamily=Verdana;fontSize=70;fontColor=#dddddd;align=left;" parent="1" vertex="1">
          <mxGeometry x="888" y="79" width="700" height="78" as="geometry" />
        </mxCell>
        <mxCell id="993" value="Creating Ubuntu VM with Terraform" style="text;html=1;resizable=0;points=[];autosize=1;align=left;verticalAlign=top;spacingTop=-4;fontSize=35;fontFamily=Verdana;fontColor=#888888;" parent="1" vertex="1">
          <mxGeometry x="892" y="163" width="640" height="40" as="geometry" />
        </mxCell>
        <mxCell id="994" value="&lt;div style=&quot;line-height: 150%&quot;&gt;Terraform&lt;/div&gt;" style="text;html=1;resizable=0;points=[];autosize=1;align=left;verticalAlign=top;spacingTop=-4;fontSize=24;fontFamily=Verdana;fontColor=#DDDDDD;fontStyle=1" parent="1" vertex="1">
          <mxGeometry x="1270" y="647" width="150" height="40" as="geometry" />
        </mxCell>
        <mxCell id="995" value="&lt;div&gt;Terminal&lt;/div&gt;" style="text;html=1;resizable=0;points=[];autosize=1;align=left;verticalAlign=top;spacingTop=-4;fontSize=24;fontFamily=Verdana;fontColor=#DDDDDD;fontStyle=1" parent="1" vertex="1">
          <mxGeometry x="1280" y="1139" width="130" height="30" as="geometry" />
        </mxCell>
        <mxCell id="999" value="&lt;div&gt;Script to create:&lt;/div&gt;&lt;div&gt;Custom Network&lt;/div&gt;&lt;div&gt;Custom Subnetwork&lt;/div&gt;&lt;div&gt;Firewall rules&lt;/div&gt;&lt;div&gt;VM Ubuntu&lt;/div&gt;&lt;div&gt;Startup script&lt;/div&gt;" style="text;html=1;resizable=0;points=[];autosize=1;align=left;verticalAlign=top;spacingTop=-4;fontSize=16;fontColor=#888888;fontFamily=Verdana;" parent="1" vertex="1">
          <mxGeometry x="1330" y="687" width="180" height="120" as="geometry" />
        </mxCell>
        <mxCell id="1001" value="&lt;div style=&quot;line-height: 120%&quot;&gt;&lt;font style=&quot;line-height: 120%&quot;&gt;&lt;div&gt;Run&amp;nbsp;&lt;/div&gt;&lt;div&gt;Terraform init&lt;br&gt;&lt;/div&gt;&lt;div&gt;Terraform fmt .&lt;/div&gt;&lt;div&gt;Terraform validate&lt;/div&gt;&lt;div&gt;Terraform apply&lt;/div&gt;&lt;/font&gt;&lt;/div&gt;" style="text;resizable=0;points=[];autosize=1;align=left;verticalAlign=top;spacingTop=-4;fontSize=16;fontFamily=Verdana;fontColor=#888888;html=1;" parent="1" vertex="1">
          <mxGeometry x="1318" y="1178.5" width="160" height="100" as="geometry" />
        </mxCell>
        <mxCell id="1006" value="Owner: Elizabeth Garcia" style="text;html=1;resizable=0;points=[];autosize=1;align=left;verticalAlign=top;spacingTop=-4;fontSize=16;fontColor=#888888;fontFamily=Verdana;" parent="1" vertex="1">
          <mxGeometry x="1411" y="1698.0000000000005" width="210" height="20" as="geometry" />
        </mxCell>
        <mxCell id="1007" value="" style="endArrow=oval;html=1;strokeColor=#666666;fontFamily=Verdana;fontSize=16;fontColor=#DDDDDD;endFill=1;rounded=1;endSize=6;startArrow=oval;startFill=1;strokeWidth=2;movable=1;resizable=1;rotatable=1;deletable=1;editable=1;connectable=1;" parent="1" edge="1">
          <mxGeometry width="50" height="50" relative="1" as="geometry">
            <mxPoint x="1169" y="717" as="sourcePoint" />
            <mxPoint x="1246" y="438" as="targetPoint" />
            <Array as="points">
              <mxPoint x="1082" y="717" />
              <mxPoint x="1082" y="527" />
              <mxPoint x="1246" y="527" />
            </Array>
          </mxGeometry>
        </mxCell>
        <mxCell id="1008" value="" style="endArrow=oval;html=1;strokeColor=#666666;fontFamily=Verdana;fontSize=16;fontColor=#DDDDDD;endFill=0;rounded=1;endSize=6;startArrow=oval;startFill=0;dashed=1;strokeWidth=2;dashPattern=1 1;" parent="1" edge="1">
          <mxGeometry x="1092" y="448" width="50" height="50" as="geometry">
            <mxPoint x="1091" y="663" as="sourcePoint" />
            <mxPoint x="1091" y="589" as="targetPoint" />
          </mxGeometry>
        </mxCell>
        <mxCell id="1009" value="" style="endArrow=none;html=1;strokeColor=#666666;fontFamily=Verdana;fontSize=16;fontColor=#DDDDDD;endFill=0;rounded=1;endSize=6;startArrow=none;startFill=0;strokeWidth=2;dashed=1;dashPattern=1 1;" parent="1" edge="1">
          <mxGeometry x="1059" y="444" width="50" height="50" as="geometry">
            <mxPoint x="1109" y="536" as="sourcePoint" />
            <mxPoint x="1254" y="514" as="targetPoint" />
            <Array as="points">
              <mxPoint x="1127" y="536" />
              <mxPoint x="1174" y="536" />
              <mxPoint x="1254" y="536" />
            </Array>
          </mxGeometry>
        </mxCell>
        <mxCell id="1010" value="" style="endArrow=oval;html=1;strokeColor=#666666;fontFamily=Verdana;fontSize=16;fontColor=#DDDDDD;endFill=1;rounded=1;endSize=6;startArrow=oval;startFill=1;strokeWidth=2;movable=1;resizable=1;rotatable=1;deletable=1;editable=1;connectable=1;" parent="1" edge="1">
          <mxGeometry x="1052" y="761" width="50" height="50" as="geometry">
            <mxPoint x="1290" y="925" as="sourcePoint" />
            <mxPoint x="1216" y="761" as="targetPoint" />
            <Array as="points">
              <mxPoint x="1337" y="925" />
              <mxPoint x="1337" y="824" />
              <mxPoint x="1216" y="824" />
            </Array>
          </mxGeometry>
        </mxCell>
        <mxCell id="1011" value="" style="endArrow=none;html=1;strokeColor=#666666;fontFamily=Verdana;fontSize=16;fontColor=#DDDDDD;endFill=0;rounded=1;endSize=6;startArrow=none;startFill=0;strokeWidth=2;dashed=1;dashPattern=1 1;" parent="1" edge="1">
          <mxGeometry x="1066" y="444" width="50" height="50" as="geometry">
            <mxPoint x="1329" y="898" as="sourcePoint" />
            <mxPoint x="1329" y="839" as="targetPoint" />
          </mxGeometry>
        </mxCell>
        <mxCell id="1012" value="" style="endArrow=none;html=1;strokeColor=#666666;fontFamily=Verdana;fontSize=16;fontColor=#DDDDDD;endFill=0;rounded=1;endSize=6;startArrow=none;startFill=0;strokeWidth=2;dashed=1;dashPattern=1 1;" parent="1" edge="1">
          <mxGeometry x="1374" y="888" width="50" height="50" as="geometry">
            <mxPoint x="1541" y="1038" as="sourcePoint" />
            <mxPoint x="1510" y="930" as="targetPoint" />
            <Array as="points">
              <mxPoint x="1541" y="930" />
              <mxPoint x="1510" y="930" />
              <mxPoint x="1491" y="912" />
              <mxPoint x="1470" y="930" />
            </Array>
          </mxGeometry>
        </mxCell>
        <mxCell id="1014" value="" style="endArrow=oval;html=1;strokeColor=#666666;fontFamily=Verdana;fontSize=16;fontColor=#DDDDDD;endFill=1;rounded=1;endSize=6;startArrow=oval;startFill=1;strokeWidth=2;movable=1;resizable=1;rotatable=1;deletable=1;editable=1;connectable=1;" parent="1" edge="1">
          <mxGeometry x="1051" y="1256" width="50" height="50" as="geometry">
            <mxPoint x="1289" y="1430" as="sourcePoint" />
            <mxPoint x="1215" y="1256" as="targetPoint" />
            <Array as="points">
              <mxPoint x="1336" y="1430" />
              <mxPoint x="1336" y="1319" />
              <mxPoint x="1215" y="1319" />
            </Array>
          </mxGeometry>
        </mxCell>
        <mxCell id="1015" value="" style="endArrow=oval;html=1;strokeColor=#666666;fontFamily=Verdana;fontSize=16;fontColor=#DDDDDD;endFill=0;rounded=1;endSize=6;startArrow=oval;startFill=0;dashed=1;strokeWidth=2;dashPattern=1 1;" parent="1" edge="1">
          <mxGeometry x="1326" y="1204" width="50" height="50" as="geometry">
            <mxPoint x="1325" y="1406" as="sourcePoint" />
            <mxPoint x="1325" y="1345" as="targetPoint" />
          </mxGeometry>
        </mxCell>
        <mxCell id="1016" value="" style="group" parent="1" vertex="1" connectable="0">
          <mxGeometry x="1212" y="358" width="66" height="66" as="geometry" />
        </mxCell>
        <mxCell id="1017" value="" style="ellipse;whiteSpace=wrap;html=1;fillColor=none;fontFamily=Verdana;fontSize=16;fontColor=#DDDDDD;strokeColor=#666666;strokeWidth=2;" parent="1016" vertex="1">
          <mxGeometry width="66" height="66" as="geometry" />
        </mxCell>
        <mxCell id="1018" value="" style="ellipse;whiteSpace=wrap;html=1;fillColor=#666666;fontFamily=Verdana;fontSize=16;fontColor=#DDDDDD;strokeColor=none;" parent="1016" vertex="1">
          <mxGeometry x="4" y="4" width="58" height="58" as="geometry" />
        </mxCell>
        <mxCell id="1019" value="" style="group" parent="1" vertex="1" connectable="0">
          <mxGeometry x="1183" y="683" width="66" height="66" as="geometry" />
        </mxCell>
        <mxCell id="1020" value="" style="ellipse;whiteSpace=wrap;html=1;fillColor=none;fontFamily=Verdana;fontSize=16;fontColor=#DDDDDD;strokeColor=#666666;strokeWidth=2;" parent="1019" vertex="1">
          <mxGeometry width="66" height="66" as="geometry" />
        </mxCell>
        <mxCell id="1021" value="" style="ellipse;whiteSpace=wrap;html=1;fillColor=#666666;fontFamily=Verdana;fontSize=16;fontColor=#DDDDDD;strokeColor=none;" parent="1019" vertex="1">
          <mxGeometry x="4" y="4" width="58" height="58" as="geometry" />
        </mxCell>
        <mxCell id="1022" value="" style="group" parent="1" vertex="1" connectable="0">
          <mxGeometry x="1212" y="893" width="66" height="66" as="geometry" />
        </mxCell>
        <mxCell id="1023" value="" style="ellipse;whiteSpace=wrap;html=1;fillColor=none;fontFamily=Verdana;fontSize=16;fontColor=#DDDDDD;strokeColor=#666666;strokeWidth=2;" parent="1022" vertex="1">
          <mxGeometry width="66" height="66" as="geometry" />
        </mxCell>
        <mxCell id="1024" value="" style="ellipse;whiteSpace=wrap;html=1;fillColor=#666666;fontFamily=Verdana;fontSize=16;fontColor=#DDDDDD;strokeColor=none;" parent="1022" vertex="1">
          <mxGeometry x="4" y="4" width="58" height="58" as="geometry" />
        </mxCell>
        <mxCell id="1025" value="" style="group" parent="1" vertex="1" connectable="0">
          <mxGeometry x="1183" y="1177" width="66" height="66" as="geometry" />
        </mxCell>
        <mxCell id="1026" value="" style="ellipse;whiteSpace=wrap;html=1;fillColor=none;fontFamily=Verdana;fontSize=16;fontColor=#DDDDDD;strokeColor=#666666;strokeWidth=2;" parent="1025" vertex="1">
          <mxGeometry width="66" height="66" as="geometry" />
        </mxCell>
        <mxCell id="1027" value="" style="ellipse;whiteSpace=wrap;html=1;fillColor=#666666;fontFamily=Verdana;fontSize=16;fontColor=#DDDDDD;strokeColor=none;" parent="1025" vertex="1">
          <mxGeometry x="4" y="4" width="58" height="58" as="geometry" />
        </mxCell>
        <mxCell id="1028" value="" style="group" parent="1" vertex="1" connectable="0">
          <mxGeometry x="1212" y="1396" width="66" height="66" as="geometry" />
        </mxCell>
        <mxCell id="1029" value="" style="ellipse;whiteSpace=wrap;html=1;fillColor=none;fontFamily=Verdana;fontSize=16;fontColor=#DDDDDD;strokeColor=#666666;strokeWidth=2;" parent="1028" vertex="1">
          <mxGeometry width="66" height="66" as="geometry" />
        </mxCell>
        <mxCell id="1030" value="" style="ellipse;whiteSpace=wrap;html=1;fillColor=#666666;fontFamily=Verdana;fontSize=16;fontColor=#DDDDDD;strokeColor=none;" parent="1028" vertex="1">
          <mxGeometry x="4" y="4" width="58" height="58" as="geometry" />
        </mxCell>
        <mxCell id="1031" value="" style="whiteSpace=wrap;html=1;strokeColor=#282828;strokeWidth=1;fillColor=none;fontFamily=Verdana;fontSize=16;fontColor=#DDDDDD;dashed=1;" parent="1" vertex="1">
          <mxGeometry x="1228" y="909" width="33" height="34" as="geometry" />
        </mxCell>
        <mxCell id="1032" value="" style="endArrow=none;html=1;strokeColor=#282828;strokeWidth=1;fontFamily=Verdana;fontSize=16;fontColor=#DDDDDD;endFill=0;entryX=0.848;entryY=0.824;entryPerimeter=0;" parent="1" edge="1">
          <mxGeometry width="50" height="50" relative="1" as="geometry">
            <mxPoint x="1233" y="936" as="sourcePoint" />
            <mxPoint x="1256" y="936.010752688172" as="targetPoint" />
          </mxGeometry>
        </mxCell>
        <mxCell id="1033" value="" style="endArrow=none;html=1;strokeColor=#282828;strokeWidth=1;fontFamily=Verdana;fontSize=16;fontColor=#DDDDDD;endFill=0;entryX=0.848;entryY=0.824;entryPerimeter=0;" parent="1" edge="1">
          <mxGeometry width="50" height="50" relative="1" as="geometry">
            <mxPoint x="1233" y="932" as="sourcePoint" />
            <mxPoint x="1256" y="932.010752688172" as="targetPoint" />
          </mxGeometry>
        </mxCell>
        <mxCell id="1034" value="" style="whiteSpace=wrap;html=1;dashed=1;strokeColor=none;strokeWidth=1;fillColor=#282828;fontFamily=Verdana;fontSize=16;fontColor=#DDDDDD;" parent="1" vertex="1">
          <mxGeometry x="1233" y="914" width="23" height="12" as="geometry" />
        </mxCell>
        <mxCell id="1035" value="" style="whiteSpace=wrap;html=1;strokeColor=#282828;strokeWidth=1;fillColor=none;fontFamily=Verdana;fontSize=16;fontColor=#DDDDDD;dashed=1;" parent="1" vertex="1">
          <mxGeometry x="1229" y="1410" width="31" height="39" as="geometry" />
        </mxCell>
        <mxCell id="1036" value="" style="whiteSpace=wrap;html=1;dashed=1;strokeColor=none;strokeWidth=1;fillColor=#282828;fontFamily=Verdana;fontSize=16;fontColor=#DDDDDD;" parent="1" vertex="1">
          <mxGeometry x="1235" y="1415" width="8" height="8" as="geometry" />
        </mxCell>
        <mxCell id="1037" value="" style="whiteSpace=wrap;html=1;dashed=1;strokeColor=none;strokeWidth=1;fillColor=#282828;fontFamily=Verdana;fontSize=16;fontColor=#DDDDDD;" parent="1" vertex="1">
          <mxGeometry x="1246" y="1415" width="8" height="8" as="geometry" />
        </mxCell>
        <mxCell id="1038" value="" style="whiteSpace=wrap;html=1;dashed=1;strokeColor=none;strokeWidth=1;fillColor=#282828;fontFamily=Verdana;fontSize=16;fontColor=#DDDDDD;" parent="1" vertex="1">
          <mxGeometry x="1235" y="1426" width="8" height="8" as="geometry" />
        </mxCell>
        <mxCell id="1039" value="" style="whiteSpace=wrap;html=1;dashed=1;strokeColor=none;strokeWidth=1;fillColor=#282828;fontFamily=Verdana;fontSize=16;fontColor=#DDDDDD;" parent="1" vertex="1">
          <mxGeometry x="1235" y="1437" width="8" height="8" as="geometry" />
        </mxCell>
        <mxCell id="1040" value="" style="whiteSpace=wrap;html=1;dashed=1;strokeColor=none;strokeWidth=1;fillColor=#282828;fontFamily=Verdana;fontSize=16;fontColor=#DDDDDD;" parent="1" vertex="1">
          <mxGeometry x="1246" y="1426" width="8" height="19" as="geometry" />
        </mxCell>
        <mxCell id="1041" value="" style="html=1;verticalLabelPosition=bottom;labelBackgroundColor=#ffffff;verticalAlign=top;strokeWidth=2;strokeColor=#282828;fillColor=none;shadow=0;dashed=0;shape=mxgraph.ios7.icons.eye;fontFamily=Verdana;fontSize=16;fontColor=#DDDDDD;" parent="1" vertex="1">
          <mxGeometry x="1194" y="703.5" width="44" height="25" as="geometry" />
        </mxCell>
        <mxCell id="1042" value="" style="ellipse;whiteSpace=wrap;html=1;dashed=1;strokeColor=none;strokeWidth=1;fillColor=#282828;fontFamily=Verdana;fontSize=16;fontColor=#DDDDDD;" parent="1" vertex="1">
          <mxGeometry x="1205" y="705" width="22" height="22" as="geometry" />
        </mxCell>
        <mxCell id="1043" value="" style="ellipse;whiteSpace=wrap;html=1;dashed=1;strokeColor=none;strokeWidth=1;fillColor=#666666;fontFamily=Verdana;fontSize=16;fontColor=#DDDDDD;" parent="1" vertex="1">
          <mxGeometry x="1207" y="707" width="18" height="18" as="geometry" />
        </mxCell>
        <mxCell id="1044" value="" style="ellipse;whiteSpace=wrap;html=1;dashed=1;strokeColor=none;strokeWidth=1;fillColor=#282828;fontFamily=Verdana;fontSize=16;fontColor=#DDDDDD;" parent="1" vertex="1">
          <mxGeometry x="1208.5" y="708.5" width="15" height="15" as="geometry" />
        </mxCell>
        <mxCell id="1045" value="" style="endArrow=none;html=1;strokeColor=#282828;strokeWidth=3;fontFamily=Verdana;fontSize=16;fontColor=#DDDDDD;endFill=0;" parent="1" edge="1">
          <mxGeometry x="1223" y="392" width="50" height="50" as="geometry">
            <mxPoint x="1222" y="392" as="sourcePoint" />
            <mxPoint x="1234" y="392" as="targetPoint" />
          </mxGeometry>
        </mxCell>
        <mxCell id="1046" value="" style="endArrow=none;html=1;strokeColor=#282828;strokeWidth=3;fontFamily=Verdana;fontSize=16;fontColor=#DDDDDD;endFill=0;" parent="1" edge="1">
          <mxGeometry x="1240" y="394" width="50" height="50" as="geometry">
            <mxPoint x="1239" y="394" as="sourcePoint" />
            <mxPoint x="1251" y="394" as="targetPoint" />
          </mxGeometry>
        </mxCell>
        <mxCell id="1047" value="" style="endArrow=none;html=1;strokeColor=#282828;strokeWidth=3;fontFamily=Verdana;fontSize=16;fontColor=#DDDDDD;endFill=0;" parent="1" edge="1">
          <mxGeometry x="1240" y="389" width="50" height="50" as="geometry">
            <mxPoint x="1239" y="389" as="sourcePoint" />
            <mxPoint x="1251" y="389" as="targetPoint" />
          </mxGeometry>
        </mxCell>
        <mxCell id="1048" value="" style="endArrow=none;html=1;strokeColor=#282828;strokeWidth=3;fontFamily=Verdana;fontSize=16;fontColor=#DDDDDD;endFill=0;" parent="1" edge="1">
          <mxGeometry x="1257" y="392" width="50" height="50" as="geometry">
            <mxPoint x="1256" y="392" as="sourcePoint" />
            <mxPoint x="1268" y="392" as="targetPoint" />
          </mxGeometry>
        </mxCell>
        <mxCell id="1049" value="" style="endArrow=none;html=1;strokeColor=#282828;strokeWidth=3;fontFamily=Verdana;fontSize=16;fontColor=#DDDDDD;endFill=0;rotation=0;" parent="1" edge="1">
          <mxGeometry x="1256" y="393" width="50" height="50" as="geometry">
            <mxPoint x="1262" y="387" as="sourcePoint" />
            <mxPoint x="1262" y="398" as="targetPoint" />
          </mxGeometry>
        </mxCell>
        <mxCell id="1050" value="" style="ellipse;whiteSpace=wrap;html=1;dashed=1;strokeColor=none;strokeWidth=1;fillColor=#282828;fontFamily=Verdana;fontSize=16;fontColor=#DDDDDD;" parent="1" vertex="1">
          <mxGeometry x="1206" y="1199" width="5" height="5" as="geometry" />
        </mxCell>
        <mxCell id="1051" value="" style="ellipse;whiteSpace=wrap;html=1;dashed=1;strokeColor=none;strokeWidth=1;fillColor=#282828;fontFamily=Verdana;fontSize=16;fontColor=#DDDDDD;" parent="1" vertex="1">
          <mxGeometry x="1228" y="1203" width="5" height="5" as="geometry" />
        </mxCell>
        <mxCell id="1052" value="" style="ellipse;whiteSpace=wrap;html=1;dashed=1;strokeColor=none;strokeWidth=1;fillColor=#282828;fontFamily=Verdana;fontSize=16;fontColor=#DDDDDD;" parent="1" vertex="1">
          <mxGeometry x="1221" y="1216" width="5" height="5" as="geometry" />
        </mxCell>
        <mxCell id="1053" value="" style="ellipse;whiteSpace=wrap;html=1;dashed=1;strokeColor=none;strokeWidth=1;fillColor=#282828;fontFamily=Verdana;fontSize=16;fontColor=#DDDDDD;" parent="1" vertex="1">
          <mxGeometry x="1199" y="1212" width="5" height="5" as="geometry" />
        </mxCell>
        <mxCell id="1054" value="" style="shape=hexagon;perimeter=hexagonPerimeter;whiteSpace=wrap;html=1;strokeColor=#282828;strokeWidth=1;fillColor=none;fontFamily=Verdana;fontSize=16;fontColor=#DDDDDD;direction=south;" parent="1" vertex="1">
          <mxGeometry x="1201" y="1201" width="15" height="18" as="geometry" />
        </mxCell>
        <mxCell id="1055" value="" style="shape=hexagon;perimeter=hexagonPerimeter;whiteSpace=wrap;html=1;strokeColor=#282828;strokeWidth=1;fillColor=none;fontFamily=Verdana;fontSize=16;fontColor=#DDDDDD;direction=south;" parent="1" vertex="1">
          <mxGeometry x="1216" y="1201" width="15" height="18" as="geometry" />
        </mxCell>
        <mxCell id="1056" value="" style="endArrow=none;html=1;strokeColor=#282828;strokeWidth=1;fontFamily=Verdana;fontSize=16;fontColor=#DDDDDD;endFill=0;" parent="1" edge="1">
          <mxGeometry width="50" height="50" relative="1" as="geometry">
            <mxPoint x="1223" y="1193" as="sourcePoint" />
            <mxPoint x="1223.2399355124335" y="1201.1578074227382" as="targetPoint" />
          </mxGeometry>
        </mxCell>
        <mxCell id="1057" value="" style="endArrow=none;html=1;strokeColor=#282828;strokeWidth=1;fontFamily=Verdana;fontSize=16;fontColor=#DDDDDD;endFill=0;" parent="1" edge="1">
          <mxGeometry width="50" height="50" relative="1" as="geometry">
            <mxPoint x="1209" y="1219" as="sourcePoint" />
            <mxPoint x="1209" y="1227" as="targetPoint" />
          </mxGeometry>
        </mxCell>
        <mxCell id="1058" value="" style="endArrow=none;html=1;strokeColor=#282828;strokeWidth=1;fontFamily=Verdana;fontSize=16;fontColor=#DDDDDD;endFill=0;" parent="1" edge="1">
          <mxGeometry width="50" height="50" relative="1" as="geometry">
            <mxPoint x="1231" y="1214" as="sourcePoint" />
            <mxPoint x="1237" y="1218" as="targetPoint" />
          </mxGeometry>
        </mxCell>
        <mxCell id="1059" value="" style="endArrow=none;html=1;strokeColor=#282828;strokeWidth=1;fontFamily=Verdana;fontSize=16;fontColor=#DDDDDD;endFill=0;" parent="1" edge="1">
          <mxGeometry width="50" height="50" relative="1" as="geometry">
            <mxPoint x="1195" y="1202" as="sourcePoint" />
            <mxPoint x="1201" y="1206" as="targetPoint" />
          </mxGeometry>
        </mxCell>
        <mxCell id="NdL2DsxcKoBhR-CSG9Ky-1059" value="" style="verticalLabelPosition=bottom;html=1;verticalAlign=top;align=center;strokeColor=#d79b00;fillColor=#ffcd28;shape=mxgraph.azure.user;gradientColor=#ffa500;" vertex="1" parent="1">
          <mxGeometry x="1008.63" y="789" width="80.75" height="71" as="geometry" />
        </mxCell>
        <mxCell id="NdL2DsxcKoBhR-CSG9Ky-1061" value="" style="shape=image;verticalLabelPosition=bottom;labelBackgroundColor=#ffffff;verticalAlign=top;aspect=fixed;imageAspect=0;image=https://www.gend.co/hs-fs/hubfs/gcp-logo-cloud.png?width=730&amp;name=gcp-logo-cloud.png;" vertex="1" parent="1">
          <mxGeometry x="983" y="290" width="160" height="126.46" as="geometry" />
        </mxCell>
        <mxCell id="NdL2DsxcKoBhR-CSG9Ky-1063" value="" style="shape=image;verticalLabelPosition=bottom;labelBackgroundColor=none;verticalAlign=top;aspect=fixed;imageAspect=0;image=https://cdn.freebiesupply.com/logos/large/2x/terraform-enterprise-logo-png-transparent.png;labelBorderColor=none;fontStyle=1;rounded=1;sketch=1;" vertex="1" parent="1">
          <mxGeometry x="1344.82" y="531.55" width="106.36" height="119.45" as="geometry" />
        </mxCell>
        <mxCell id="NdL2DsxcKoBhR-CSG9Ky-1065" value="&lt;div style=&quot;line-height: 150%&quot;&gt;GitHub&lt;/div&gt;" style="text;html=1;resizable=0;points=[];autosize=1;align=left;verticalAlign=top;spacingTop=-4;fontSize=24;fontFamily=Verdana;fontColor=#DDDDDD;fontStyle=1" vertex="1" parent="1">
          <mxGeometry x="942" y="1422.5" width="110" height="40" as="geometry" />
        </mxCell>
        <mxCell id="NdL2DsxcKoBhR-CSG9Ky-1066" value="All files are uploaded to a repository&lt;br&gt;File can be download by using pull&lt;br&gt;Push request to upload&lt;br&gt;Pull request to download" style="text;html=1;resizable=0;points=[];autosize=1;align=left;verticalAlign=top;spacingTop=-4;fontSize=16;fontColor=#888888;fontFamily=Verdana;" vertex="1" parent="1">
          <mxGeometry x="939" y="1462.5" width="310" height="80" as="geometry" />
        </mxCell>
        <mxCell id="NdL2DsxcKoBhR-CSG9Ky-1067" value="" style="shape=image;html=1;verticalAlign=top;verticalLabelPosition=bottom;labelBackgroundColor=#ffffff;imageAspect=0;aspect=fixed;image=https://cdn1.iconfinder.com/data/icons/unicons-line-vol-3/24/github-alt-128.png" vertex="1" parent="1">
          <mxGeometry x="1024.18" y="1335.5" width="91" height="91" as="geometry" />
        </mxCell>
        <mxCell id="NdL2DsxcKoBhR-CSG9Ky-1069" value="" style="endArrow=oval;html=1;strokeColor=#666666;fontFamily=Verdana;fontSize=16;fontColor=#DDDDDD;endFill=1;rounded=1;startArrow=oval;startFill=1;strokeWidth=2;movable=1;resizable=1;rotatable=1;deletable=1;editable=1;connectable=1;" edge="1" parent="1">
          <mxGeometry width="50" height="50" relative="1" as="geometry">
            <mxPoint x="990" y="1250" as="sourcePoint" />
            <mxPoint x="900" y="1020" as="targetPoint" />
            <Array as="points">
              <mxPoint x="990" y="1240" />
              <mxPoint x="990" y="1190" />
              <mxPoint x="990" y="1120" />
              <mxPoint x="900" y="1120" />
              <mxPoint x="900" y="1020" />
            </Array>
          </mxGeometry>
        </mxCell>
        <mxCell id="NdL2DsxcKoBhR-CSG9Ky-1070" value="" style="endArrow=classic;html=1;strokeColor=#666666;fontFamily=Verdana;fontSize=16;fontColor=#DDDDDD;endFill=1;rounded=1;endSize=6;startArrow=none;startFill=0;strokeWidth=2;dashed=1;dashPattern=1 1;" edge="1" parent="1">
          <mxGeometry x="835" y="1084" width="50" height="50" as="geometry">
            <mxPoint x="1002" y="1234" as="sourcePoint" />
            <mxPoint x="930" y="1040" as="targetPoint" />
            <Array as="points">
              <mxPoint x="1002" y="1108" />
              <mxPoint x="910" y="1108" />
              <mxPoint x="910" y="1040" />
            </Array>
          </mxGeometry>
        </mxCell>
        <mxCell id="NdL2DsxcKoBhR-CSG9Ky-1071" value="" style="shape=image;html=1;verticalAlign=top;verticalLabelPosition=bottom;labelBackgroundColor=#ffffff;imageAspect=0;aspect=fixed;image=https://cdn2.iconfinder.com/data/icons/font-awesome/1792/terminal-128.png" vertex="1" parent="1">
          <mxGeometry x="1344.82" y="1040" width="95" height="95" as="geometry" />
        </mxCell>
        <mxCell id="NdL2DsxcKoBhR-CSG9Ky-1072" value="&lt;font style=&quot;font-size: 12px&quot;&gt;Pull request&lt;/font&gt;" style="text;html=1;resizable=0;points=[];autosize=1;align=left;verticalAlign=top;spacingTop=-4;fontSize=16;fontColor=#888888;fontFamily=Verdana;" vertex="1" parent="1">
          <mxGeometry x="920" y="1079" width="90" height="20" as="geometry" />
        </mxCell>
        <mxCell id="NdL2DsxcKoBhR-CSG9Ky-1075" value="&lt;span style=&quot;font-size: 12px&quot;&gt;Push script&lt;/span&gt;" style="text;html=1;resizable=0;points=[];autosize=1;align=left;verticalAlign=top;spacingTop=-4;fontSize=16;fontColor=#888888;fontFamily=Verdana;" vertex="1" parent="1">
          <mxGeometry x="884" y="1197" width="80" height="20" as="geometry" />
        </mxCell>
        <mxCell id="NdL2DsxcKoBhR-CSG9Ky-1076" value="" style="endArrow=none;html=1;strokeColor=#666666;fontFamily=Verdana;fontSize=16;fontColor=#DDDDDD;endFill=0;rounded=1;endSize=6;startArrow=classic;startFill=1;strokeWidth=2;dashed=1;dashPattern=1 1;" edge="1" parent="1">
          <mxGeometry x="808" y="1110" width="50" height="50" as="geometry">
            <mxPoint x="975" y="1260" as="sourcePoint" />
            <mxPoint x="883" y="1066" as="targetPoint" />
            <Array as="points">
              <mxPoint x="975" y="1134" />
              <mxPoint x="883" y="1134" />
              <mxPoint x="883" y="1066" />
            </Array>
          </mxGeometry>
        </mxCell>
        <mxCell id="NdL2DsxcKoBhR-CSG9Ky-1077" value="&lt;div&gt;*User goes to GCP console&lt;/div&gt;&lt;div&gt;*Access GCP project with terraform&lt;/div&gt;&lt;div&gt;*Executes script&lt;/div&gt;&lt;div&gt;&amp;nbsp; &amp;nbsp;*Everything works push to github&lt;/div&gt;" style="text;html=1;resizable=0;points=[];autosize=1;align=left;verticalAlign=top;spacingTop=-4;fontSize=16;fontColor=#888888;fontFamily=Verdana;" vertex="1" parent="1">
          <mxGeometry x="919" y="868" width="300" height="80" as="geometry" />
        </mxCell>
        <mxCell id="NdL2DsxcKoBhR-CSG9Ky-1079" value="" style="endArrow=oval;html=1;strokeColor=#666666;fontFamily=Verdana;fontSize=16;fontColor=#DDDDDD;endFill=1;rounded=1;endSize=6;startArrow=oval;startFill=1;strokeWidth=2;movable=1;resizable=1;rotatable=1;deletable=1;editable=1;connectable=1;" edge="1" parent="1">
          <mxGeometry x="1247" y="876" width="50" height="50" as="geometry">
            <mxPoint x="1485" y="1040" as="sourcePoint" />
            <mxPoint x="1411" y="876" as="targetPoint" />
            <Array as="points">
              <mxPoint x="1532" y="1040" />
              <mxPoint x="1532" y="939" />
              <mxPoint x="1411" y="939" />
            </Array>
          </mxGeometry>
        </mxCell>
      </root>
    </mxGraphModel>
  </diagram>
</mxfile>
